<svg xmlns="http://www.w3.org/2000/svg" viewBox="0 0 1200 800" width="1200" height="800" aria-hidden="true">
  <defs>
    <linearGradient id="g" x1="0" y1="0" x2="1" y2="1">
      <stop offset="0" stop-color="#0b7a5a"/>
      <stop offset="1" stop-color="#0f2d23"/>
    </linearGradient>
    <pattern id="leaf" x="0" y="0" width="60" height="60" patternUnits="userSpaceOnUse">
      <path d="M10 30c10-8 18-8 26 0-8 12-16 12-26 0z" fill="url(#g)" opacity="0.85"/>
      <path d="M34 10c8-6 14-6 20 0-5 8-11 8-20 0z" fill="url(#g)" opacity="0.6"/>
    </pattern>
  </defs>
  <rect width="100%" height="100%" fill="none"/>
  <!-- Outer frame -->
  <rect x="10" y="10" width="1180" height="780" fill="none" stroke="#0b7a5a" stroke-width="4" rx="18" ry="18" opacity="0.55"/>
  <!-- Leaf bands along edges -->
  <rect x="20" y="20" width="1160" height="20" fill="url(#leaf)" opacity="0.6"/>
  <rect x="20" y="760" width="1160" height="20" fill="url(#leaf)" opacity="0.6"/>
  <rect x="20" y="40" width="20" height="720" fill="url(#leaf)" opacity="0.6"/>
  <rect x="1160" y="40" width="20" height="720" fill="url(#leaf)" opacity="0.6"/>
  <!-- Decorative corner leaves -->
  <g opacity="0.8">
    <path d="M52 56c24-12 46-8 64 10-18 18-40 22-64-10z" fill="url(#g)"/>
    <path d="M1148 56c-24-12-46-8-64 10 18 18 40 22 64-10z" fill="url(#g)"/>
    <path d="M52 744c24 12 46 8 64-10-18-18-40-22-64 10z" fill="url(#g)"/>
    <path d="M1148 744c-24 12-46 8-64-10 18-18 40-22 64 10z" fill="url(#g)"/>
  </g>
</svg>
