<svg xmlns="http://www.w3.org/2000/svg" viewBox="0 0 320 320" width="320" height="320" aria-hidden="true">
  <defs>
    <linearGradient id="leaf" x1="0" y1="0" x2="1" y2="1">
      <stop offset="0" stop-color="#0b7a5a"/>
      <stop offset="1" stop-color="#0f2d23"/>
    </linearGradient>
  </defs>
  <rect width="100%" height="100%" fill="none"/>
  <!-- simple decorative vines/leaves for corner -->
  <g fill="none" stroke="#0b7a5a" stroke-width="4" stroke-linecap="round" stroke-linejoin="round" opacity="0.9">
    <path d="M6 180c80-40 120-80 140-160" opacity=".5"/>
    <path d="M12 290c90-52 160-120 190-230" opacity=".45"/>
    <path d="M0 80c60-22 98-46 122-78" opacity=".35"/>
  </g>
  <g fill="url(#leaf)" opacity="0.9">
    <path d="M60 170c16-8 32-6 44 6-12 12-28 14-44-6z"/>
    <path d="M110 120c14-10 28-10 40 0-10 14-24 16-40 0z"/>
    <path d="M30 110c12-8 22-8 32 0-8 12-18 12-32 0z"/>
    <path d="M74 232c18-10 30-10 44 2-12 16-28 18-44-2z"/>
    <path d="M8 250c14-6 22-4 30 6-10 10-18 10-30-6z"/>
  </g>
</svg>
